<?xml version="1.0" standalone="no"?>
<!DOCTYPE svg PUBLIC "-//W3C//DTD SVG 20010904//EN"
 "http://www.w3.org/TR/2001/REC-SVG-20010904/DTD/svg10.dtd">
<svg version="1.0" xmlns="http://www.w3.org/2000/svg"
 width="1072.000000pt" height="1072.000000pt" viewBox="0 0 1072.000000 1072.000000"
 preserveAspectRatio="xMidYMid meet">
<metadata>
Created by potrace 1.11, written by Peter Selinger 2001-2013
</metadata>
<g transform="translate(0.000000,1072.000000) scale(0.100000,-0.100000)"
fill="#000000" stroke="none">
<path d="M1689 10682 c0 -39 0 -597 1 -772 l0 -105 203 -2 c212 -3 532 -9 902
-18 367 -8 729 -16 937 -20 108 -1 202 -6 207 -10 6 -3 11 -1 11 5 0 6 5 8 10
5 6 -3 99 -8 208 -10 108 -3 325 -7 482 -10 157 -3 375 -8 485 -10 191 -4 415
-9 915 -20 124 -3 324 -7 445 -10 202 -4 370 -8 945 -21 113 -2 229 -5 258 -7
28 -1 52 2 52 6 0 5 5 5 11 1 6 -4 75 -8 153 -10 233 -4 768 -16 1091 -24 44
-1 92 -1 107 -1 l27 1 -2 265 c-1 146 2 265 6 265 5 0 5 5 1 11 -4 7 -7 92 -6
190 0 99 -2 179 -6 179 -4 1 -106 3 -227 5 -121 2 -332 7 -470 10 -137 3 -349
8 -470 10 -121 3 -323 7 -450 10 -434 9 -720 16 -920 20 -258 5 -731 15 -960
21 -173 4 -190 4 -217 4 -7 -1 -101 1 -208 4 -107 3 -319 7 -470 10 -365 8
-689 16 -940 22 -113 3 -216 4 -230 4 -14 -1 -29 -2 -35 -1 -55 3 -1168 27
-1607 35 l-238 5 -1 -37z"/>
<path d="M1689 9641 c0 -3 -2 -14 -4 -24 -2 -10 -6 -44 -9 -76 -9 -88 -16
-153 -21 -186 -2 -16 -7 -61 -10 -100 -4 -38 -9 -73 -12 -77 -6 -10 -15 -10
210 -13 108 -2 204 -5 212 -9 8 -3 17 -1 20 5 4 5 11 7 16 3 16 -10 69 -11 69
-1 0 4 5 5 11 1 7 -4 127 -8 268 -10 244 -3 558 -7 1386 -20 204 -3 495 -6
647 -7 153 -1 278 -5 278 -9 0 -4 10 -4 23 0 12 4 36 6 52 5 39 -3 675 -13
1805 -28 168 -2 476 -7 685 -10 209 -3 513 -8 675 -10 162 -2 487 -6 721 -10
l427 -5 0 215 0 215 -106 1 c-59 0 -174 2 -257 4 -150 4 -493 11 -915 21 -124
2 -324 6 -445 9 -121 2 -326 6 -455 10 -455 10 -757 17 -907 18 -84 1 -153 6
-153 10 0 4 -8 4 -17 0 -10 -5 -29 -8 -43 -7 -28 3 -388 12 -745 19 -132 3
-350 8 -485 10 -135 3 -337 8 -450 10 -113 3 -313 7 -445 10 -482 9 -926 19
-1425 31 -435 10 -600 11 -601 5z"/>
<path d="M1689 9052 c-1 -4 -3 -25 -4 -47 -2 -22 -6 -67 -9 -100 -3 -33 -8
-94 -11 -135 -3 -41 -8 -93 -11 -115 -2 -22 -7 -69 -9 -105 -3 -36 -6 -80 -8
-97 -1 -18 2 -34 8 -36 10 -3 181 -7 482 -11 95 -1 175 -5 179 -9 4 -3 14 -2
24 3 10 5 20 7 23 4 3 -3 113 -7 244 -10 131 -2 346 -6 478 -9 132 -3 348 -7
480 -10 132 -3 328 -7 435 -10 573 -13 813 -18 982 -19 104 0 188 -3 188 -6 0
-5 303 -10 767 -13 112 -1 203 -4 203 -7 0 -3 80 -6 178 -7 197 -2 549 -9 957
-19 149 -3 341 -7 427 -8 87 -1 160 -5 164 -8 3 -4 18 -2 34 2 16 4 31 6 33 4
3 -3 107 -7 233 -9 125 -2 345 -7 489 -11 409 -10 436 -10 440 -4 1 3 6 43 9
90 12 165 16 216 21 265 8 82 17 187 19 237 l2 47 -80 1 c-45 0 -157 3 -251 5
-93 3 -291 7 -440 10 -458 9 -818 17 -1405 30 -107 3 -310 7 -450 10 -140 3
-345 7 -455 10 -110 2 -317 7 -460 10 -252 5 -532 11 -955 20 -113 3 -317 7
-455 10 -251 5 -480 10 -935 20 -135 4 -341 8 -458 9 -117 2 -216 6 -219 9 -3
4 -14 2 -24 -4 -11 -5 -19 -6 -19 -2 0 4 -96 9 -213 10 -116 1 -305 4 -419 7
-115 2 -208 1 -209 -2z"/>
<path d="M1655 8200 c-20 -7 -20 -16 -21 -1316 -1 -1275 -1 -1310 -20 -1364
-11 -30 -19 -71 -18 -90 3 -55 13 -110 24 -130 5 -10 12 -47 15 -82 15 -169
49 -307 108 -441 34 -74 102 -177 133 -200 25 -19 26 -18 62 6 20 13 78 54
127 91 84 63 201 140 214 141 3 1 25 11 47 23 23 11 44 18 48 15 3 -4 6 -1 6
6 0 7 3 10 8 8 4 -3 16 -1 27 3 14 5 31 -1 55 -19 19 -14 37 -29 38 -33 2 -5
8 -8 13 -8 8 0 35 -20 64 -47 8 -7 17 -13 22 -13 4 0 28 -19 53 -43 38 -36
116 -90 280 -192 87 -55 229 -134 253 -142 9 -3 17 -9 17 -14 0 -5 7 -9 15 -9
9 0 34 -12 58 -27 23 -14 43 -26 44 -25 2 1 51 -22 110 -49 103 -49 282 -125
318 -135 23 -6 132 -46 150 -55 11 -5 29 -11 40 -12 11 -2 27 -7 35 -10 30
-12 185 -50 335 -83 11 -3 42 -7 69 -10 27 -3 52 -7 56 -9 17 -10 175 -20 337
-20 202 0 188 5 185 -65 -5 -93 -89 -145 -244 -149 -39 -1 -60 -18 -183 -150
-27 -30 -75 -72 -105 -95 -30 -22 -57 -43 -60 -46 -3 -3 -14 -10 -25 -16 -11
-6 -42 -23 -69 -38 -83 -46 -227 -104 -324 -130 -51 -14 -95 -25 -97 -25 -3
-1 -6 -1 -7 -2 -24 -6 -141 -13 -243 -13 -147 -1 -210 6 -336 35 -26 6 -53 12
-60 13 -8 2 -21 6 -29 9 -8 3 -37 12 -65 20 -155 45 -392 156 -597 280 -121
74 -123 76 -145 131 -12 31 -20 56 -18 56 2 0 -1 15 -6 33 -5 17 -12 45 -14
60 -3 15 -9 36 -14 45 -10 20 -22 47 -52 122 -34 82 -65 129 -125 186 -50 48
-157 109 -179 102 -5 -2 -10 -19 -11 -39 -3 -68 -34 -137 -87 -197 -29 -31
-54 -59 -57 -62 -3 -3 -17 -21 -30 -40 -29 -43 -128 -139 -175 -171 -45 -31
-64 -80 -73 -193 -6 -65 -5 -95 5 -113 7 -14 13 -29 13 -34 0 -10 81 -180 90
-189 3 -3 13 -21 24 -40 62 -119 116 -202 146 -230 3 -3 13 -16 22 -30 31 -49
128 -153 164 -178 44 -29 87 -31 204 -7 14 3 54 8 90 11 36 3 76 8 90 10 30 5
239 5 297 -1 120 -10 268 -58 353 -114 57 -38 87 -80 120 -172 39 -107 13
-302 -58 -429 -20 -36 -45 -78 -54 -95 -9 -16 -37 -73 -63 -125 -25 -52 -53
-108 -62 -125 -53 -97 -75 -135 -83 -140 -20 -12 -143 -294 -155 -355 -2 -10
-17 -95 -21 -122 -3 -21 1 -30 18 -39 18 -10 158 -118 178 -139 3 -3 32 -25
65 -49 33 -25 66 -52 73 -60 6 -8 12 -12 12 -8 0 3 33 -17 73 -46 40 -29 89
-61 110 -72 20 -11 37 -23 37 -27 0 -5 4 -8 9 -8 5 0 53 -25 107 -56 89 -50
281 -146 404 -202 25 -11 120 -57 212 -101 92 -45 171 -81 176 -81 4 0 26 -8
48 -19 34 -16 108 -42 199 -71 36 -11 78 -20 125 -26 19 -3 46 -7 60 -10 14
-2 41 -7 60 -9 19 -3 64 -10 100 -16 83 -13 235 -26 378 -33 46 -2 85 -6 88
-9 3 -3 11 -4 17 -2 7 3 136 7 287 10 151 3 298 7 325 9 58 6 223 17 245 18
12 0 112 20 170 33 8 2 38 8 65 15 28 6 82 21 120 32 39 12 72 22 75 23 40 10
98 31 107 38 7 5 17 6 22 3 5 -4 12 -2 15 3 3 5 29 16 58 26 29 9 67 23 83 30
17 8 75 33 130 56 127 53 369 170 373 181 2 4 11 8 21 8 9 0 21 4 26 9 6 5 37
23 70 41 33 18 126 71 208 118 123 71 153 93 182 134 20 27 43 52 53 55 9 4
39 26 67 50 27 24 64 48 81 53 29 10 31 13 24 43 -4 18 -10 39 -13 47 -70 190
-87 240 -90 265 -2 17 -8 41 -14 55 -53 127 -66 157 -75 168 -6 6 -8 12 -5 12
12 0 -72 168 -115 230 -113 162 -181 337 -187 479 -6 141 76 274 205 335 53
25 132 53 169 59 11 2 31 7 45 10 57 14 125 18 300 19 194 1 218 -1 315 -27
137 -38 176 -33 245 34 28 27 50 53 50 59 0 5 7 12 15 16 8 3 15 12 15 20 0 8
3 16 8 18 4 1 26 32 50 68 44 67 56 85 97 135 14 17 25 33 25 37 0 4 6 13 14
21 26 26 125 242 132 287 24 158 11 213 -72 299 -98 103 -181 194 -215 237
-41 51 -81 137 -86 188 -3 23 -8 44 -11 48 -8 8 -119 -41 -152 -68 -43 -33
-136 -128 -157 -159 -43 -63 -81 -143 -107 -222 -15 -45 -27 -85 -27 -88 6
-31 -69 -98 -194 -172 -82 -48 -303 -144 -365 -158 -3 -1 -25 -7 -50 -15 -55
-16 -59 -18 -88 -24 -12 -3 -50 -12 -85 -21 -34 -9 -80 -18 -102 -21 -22 -3
-46 -7 -54 -10 -63 -21 -396 -23 -512 -4 -70 12 -84 14 -127 24 -9 2 -52 16
-95 30 -180 61 -336 161 -517 336 -63 61 -126 113 -140 116 -14 4 -47 12 -75
19 -27 8 -68 16 -90 20 -64 10 -103 52 -109 118 l-3 32 186 0 c185 0 269 5
388 25 34 6 75 12 90 14 15 3 39 7 53 11 14 3 37 7 52 10 15 2 36 6 47 10 11
3 28 8 38 10 87 20 343 100 398 125 11 5 65 27 120 48 55 22 132 55 170 73 39
18 72 34 75 34 11 3 238 117 280 141 25 14 65 36 90 50 25 13 59 33 75 43 17
10 46 27 65 38 82 47 148 87 218 134 41 27 77 49 79 49 2 0 24 14 49 30 63 44
92 45 181 4 64 -30 186 -104 203 -123 3 -3 12 -10 21 -16 9 -5 57 -37 105 -70
81 -55 154 -95 174 -95 15 0 173 333 185 390 2 8 8 35 14 60 5 25 12 76 16
114 5 58 3 67 -9 63 -9 -4 -22 3 -30 15 -14 19 -14 28 1 93 9 41 8 212 -2 315
-5 47 -9 660 -9 1363 0 702 -3 1278 -6 1278 -3 1 -89 3 -191 4 -103 1 -192 6
-198 9 -6 4 -11 2 -11 -4 0 -6 -5 -8 -10 -5 -6 4 -160 8 -343 10 -182 3 -492
7 -687 10 -195 3 -510 8 -700 10 -493 7 -883 13 -1375 20 -236 4 -554 8 -706
10 -152 1 -281 5 -287 9 -6 3 -13 2 -17 -3 -4 -7 -15 -7 -30 -1 -15 6 -25 6
-25 0 0 -5 -12 -5 -30 0 -18 5 -32 5 -36 -1 -3 -5 -10 -6 -16 -2 -7 3 -131 8
-277 9 -146 1 -439 5 -651 8 -850 13 -1090 16 -1437 20 -200 3 -366 7 -370 9
-5 2 -17 1 -28 -3z m3726 -4800 c5 0 10 -12 10 -27 2 -24 2 -25 6 -5 7 37 40
27 75 -23 32 -45 85 -138 129 -225 13 -25 29 -52 37 -62 7 -9 15 -22 16 -30 2
-7 19 -47 38 -88 53 -110 104 -246 100 -262 -1 -5 3 -8 8 -8 6 0 10 -7 10 -16
0 -21 35 -148 71 -261 16 -50 32 -100 34 -110 18 -77 27 -108 43 -150 16 -39
19 -74 18 -188 -1 -142 -5 -158 -52 -223 -2 -3 -28 -9 -46 -11 -5 -1 -8 -9 -8
-19 0 -11 -8 -28 -17 -39 -41 -46 -70 -88 -99 -140 -17 -30 -35 -58 -40 -61
-12 -9 -74 -135 -74 -151 0 -6 -5 -11 -11 -11 -5 0 -8 -4 -4 -9 3 -5 1 -12 -4
-15 -5 -3 -23 -35 -40 -71 -16 -36 -34 -65 -38 -65 -24 1 -107 58 -110 75 -1
11 -5 36 -8 55 -3 19 -8 178 -10 353 -3 174 -7 327 -9 340 -3 12 -8 33 -11 47
-3 14 -6 44 -6 68 0 40 -13 61 -16 25 -1 -10 -4 -31 -7 -48 -9 -44 -17 -113
-21 -170 -2 -27 -4 -50 -5 -50 0 0 -3 -27 -5 -60 -2 -33 -6 -87 -9 -120 -3
-33 -8 -89 -11 -125 -3 -36 -8 -76 -10 -90 -3 -14 -7 -43 -11 -65 -10 -72 -15
-98 -20 -106 -2 -4 -1 -10 4 -13 4 -2 7 -20 7 -38 -1 -33 -1 -33 -50 -32 -116
3 -113 2 -129 36 -9 17 -16 37 -16 44 0 41 -163 325 -225 392 -13 14 -27 37
-30 51 -3 13 -14 36 -24 50 -59 84 -85 204 -56 261 11 21 82 287 101 378 21
99 48 199 56 210 6 6 8 12 5 12 -3 0 7 31 23 69 15 38 26 72 22 75 -3 3 -1 6
5 6 8 0 20 25 23 47 0 6 79 151 110 203 42 71 141 214 152 218 4 2 8 8 8 14 0
6 9 18 20 28 25 22 50 81 50 118 0 36 9 45 27 27 8 -8 19 -15 24 -15z"/>
</g>
</svg>
